<mxfile host="www.draw.io" modified="2020-02-11T00:04:33.682Z" agent="Mozilla/5.0 (Windows NT 10.0; Win64; x64) AppleWebKit/537.36 (KHTML, like Gecko) Chrome/82.0.4045.0 Safari/537.36 Edg/82.0.418.0" etag="ykae2ImmxNFECE7MzheL" version="12.6.7" type="github" pages="2">
  <diagram id="feiMSj5Qm32nRbiH-3z1" name="CRUD">
    <mxGraphModel dx="1038" dy="544" grid="1" gridSize="10" guides="1" tooltips="1" connect="1" arrows="1" fold="1" page="1" pageScale="1" pageWidth="1100" pageHeight="850" math="0" shadow="0">
      <root>
        <mxCell id="0"/>
        <mxCell id="1" parent="0"/>
        <mxCell id="9J9qHrp-IRwYcZaCuWWq-4" value="&lt;font style=&quot;font-size: 10px&quot;&gt;CrudControllerBase&lt;/font&gt;" style="shape=umlLifeline;perimeter=lifelinePerimeter;whiteSpace=wrap;html=1;container=1;collapsible=0;recursiveResize=0;outlineConnect=0;fillColor=#e1d5e7;strokeColor=#9673a6;" parent="1" vertex="1">
          <mxGeometry x="290" y="20" width="100" height="540" as="geometry"/>
        </mxCell>
        <mxCell id="9J9qHrp-IRwYcZaCuWWq-10" value="" style="html=1;points=[];perimeter=orthogonalPerimeter;" parent="9J9qHrp-IRwYcZaCuWWq-4" vertex="1">
          <mxGeometry x="45" y="80" width="10" height="60" as="geometry"/>
        </mxCell>
        <mxCell id="9J9qHrp-IRwYcZaCuWWq-5" value="&lt;font style=&quot;font-size: 10px&quot;&gt;CrudServiceBase&lt;/font&gt;" style="shape=umlLifeline;perimeter=lifelinePerimeter;whiteSpace=wrap;html=1;container=1;collapsible=0;recursiveResize=0;outlineConnect=0;fillColor=#e1d5e7;strokeColor=#9673a6;" parent="1" vertex="1">
          <mxGeometry x="430" y="20" width="100" height="540" as="geometry"/>
        </mxCell>
        <mxCell id="9J9qHrp-IRwYcZaCuWWq-11" value="" style="html=1;points=[];perimeter=orthogonalPerimeter;" parent="9J9qHrp-IRwYcZaCuWWq-5" vertex="1">
          <mxGeometry x="45" y="90" width="10" height="50" as="geometry"/>
        </mxCell>
        <mxCell id="9J9qHrp-IRwYcZaCuWWq-6" value="&lt;font style=&quot;font-size: 10px&quot;&gt;CrudRepository&lt;/font&gt;" style="shape=umlLifeline;perimeter=lifelinePerimeter;whiteSpace=wrap;html=1;container=1;collapsible=0;recursiveResize=0;outlineConnect=0;fillColor=#e1d5e7;strokeColor=#9673a6;" parent="1" vertex="1">
          <mxGeometry x="570" y="20" width="100" height="540" as="geometry"/>
        </mxCell>
        <mxCell id="9J9qHrp-IRwYcZaCuWWq-12" value="" style="html=1;points=[];perimeter=orthogonalPerimeter;" parent="9J9qHrp-IRwYcZaCuWWq-6" vertex="1">
          <mxGeometry x="45" y="100" width="10" height="40" as="geometry"/>
        </mxCell>
        <mxCell id="9J9qHrp-IRwYcZaCuWWq-7" value="" style="shape=umlLifeline;participant=umlActor;perimeter=lifelinePerimeter;whiteSpace=wrap;html=1;container=1;collapsible=0;recursiveResize=0;verticalAlign=top;spacingTop=36;labelBackgroundColor=#ffffff;outlineConnect=0;" parent="1" vertex="1">
          <mxGeometry x="30" y="20" width="20" height="540" as="geometry"/>
        </mxCell>
        <mxCell id="9J9qHrp-IRwYcZaCuWWq-8" value="GET [url]/accounts" style="html=1;verticalAlign=bottom;endArrow=block;" parent="9J9qHrp-IRwYcZaCuWWq-7" target="9J9qHrp-IRwYcZaCuWWq-2" edge="1">
          <mxGeometry width="80" relative="1" as="geometry">
            <mxPoint x="10" y="80" as="sourcePoint"/>
            <mxPoint x="160" y="80" as="targetPoint"/>
          </mxGeometry>
        </mxCell>
        <mxCell id="LNhbeMGU2I7_TpRNJxB6-1" value="" style="html=1;points=[];perimeter=orthogonalPerimeter;" parent="9J9qHrp-IRwYcZaCuWWq-7" vertex="1">
          <mxGeometry x="5" y="69" width="10" height="71" as="geometry"/>
        </mxCell>
        <mxCell id="LNhbeMGU2I7_TpRNJxB6-32" value="" style="html=1;points=[];perimeter=orthogonalPerimeter;" parent="9J9qHrp-IRwYcZaCuWWq-7" vertex="1">
          <mxGeometry x="165" y="160" width="10" height="71" as="geometry"/>
        </mxCell>
        <mxCell id="LNhbeMGU2I7_TpRNJxB6-33" value="" style="html=1;points=[];perimeter=orthogonalPerimeter;" parent="9J9qHrp-IRwYcZaCuWWq-7" vertex="1">
          <mxGeometry x="305" y="171" width="10" height="60" as="geometry"/>
        </mxCell>
        <mxCell id="LNhbeMGU2I7_TpRNJxB6-34" value="" style="html=1;points=[];perimeter=orthogonalPerimeter;" parent="9J9qHrp-IRwYcZaCuWWq-7" vertex="1">
          <mxGeometry x="445" y="181" width="10" height="50" as="geometry"/>
        </mxCell>
        <mxCell id="LNhbeMGU2I7_TpRNJxB6-35" value="" style="html=1;points=[];perimeter=orthogonalPerimeter;" parent="9J9qHrp-IRwYcZaCuWWq-7" vertex="1">
          <mxGeometry x="585" y="191" width="10" height="40" as="geometry"/>
        </mxCell>
        <mxCell id="LNhbeMGU2I7_TpRNJxB6-36" value="GET [url]/accounts/:id" style="html=1;verticalAlign=bottom;endArrow=block;" parent="9J9qHrp-IRwYcZaCuWWq-7" edge="1">
          <mxGeometry width="80" relative="1" as="geometry">
            <mxPoint x="10" y="171" as="sourcePoint"/>
            <mxPoint x="169.50000000000023" y="171" as="targetPoint"/>
          </mxGeometry>
        </mxCell>
        <mxCell id="LNhbeMGU2I7_TpRNJxB6-37" value="" style="html=1;points=[];perimeter=orthogonalPerimeter;" parent="9J9qHrp-IRwYcZaCuWWq-7" vertex="1">
          <mxGeometry x="5" y="160" width="10" height="71" as="geometry"/>
        </mxCell>
        <mxCell id="LNhbeMGU2I7_TpRNJxB6-38" value="" style="html=1;verticalAlign=bottom;endArrow=block;exitX=0.926;exitY=0.311;exitDx=0;exitDy=0;exitPerimeter=0;" parent="9J9qHrp-IRwYcZaCuWWq-7" source="LNhbeMGU2I7_TpRNJxB6-32" edge="1">
          <mxGeometry width="80" relative="1" as="geometry">
            <mxPoint x="200" y="182" as="sourcePoint"/>
            <mxPoint x="310" y="182" as="targetPoint"/>
          </mxGeometry>
        </mxCell>
        <mxCell id="LNhbeMGU2I7_TpRNJxB6-39" value="" style="html=1;verticalAlign=bottom;endArrow=block;" parent="9J9qHrp-IRwYcZaCuWWq-7" edge="1">
          <mxGeometry width="80" relative="1" as="geometry">
            <mxPoint x="315" y="190" as="sourcePoint"/>
            <mxPoint x="449.5" y="190" as="targetPoint"/>
          </mxGeometry>
        </mxCell>
        <mxCell id="LNhbeMGU2I7_TpRNJxB6-40" value="" style="html=1;verticalAlign=bottom;endArrow=block;exitX=0.929;exitY=0.354;exitDx=0;exitDy=0;exitPerimeter=0;" parent="9J9qHrp-IRwYcZaCuWWq-7" source="LNhbeMGU2I7_TpRNJxB6-34" edge="1">
          <mxGeometry width="80" relative="1" as="geometry">
            <mxPoint x="470" y="202" as="sourcePoint"/>
            <mxPoint x="589.5000000000002" y="198.70000000000005" as="targetPoint"/>
          </mxGeometry>
        </mxCell>
        <mxCell id="LNhbeMGU2I7_TpRNJxB6-41" value="" style="html=1;verticalAlign=bottom;endArrow=open;dashed=1;endSize=8;exitX=-0.114;exitY=0.726;exitDx=0;exitDy=0;exitPerimeter=0;" parent="9J9qHrp-IRwYcZaCuWWq-7" source="LNhbeMGU2I7_TpRNJxB6-35" edge="1">
          <mxGeometry relative="1" as="geometry">
            <mxPoint x="550" y="221" as="sourcePoint"/>
            <mxPoint x="9.666666666666629" y="220.03999999999996" as="targetPoint"/>
          </mxGeometry>
        </mxCell>
        <mxCell id="9J9qHrp-IRwYcZaCuWWq-2" value="&lt;font style=&quot;font-size: 10px&quot;&gt;AccountsController&lt;/font&gt;" style="shape=umlLifeline;perimeter=lifelinePerimeter;whiteSpace=wrap;html=1;container=1;collapsible=0;recursiveResize=0;outlineConnect=0;fillColor=#fff2cc;strokeColor=#d6b656;" parent="1" vertex="1">
          <mxGeometry x="150" y="20" width="100" height="540" as="geometry"/>
        </mxCell>
        <mxCell id="9J9qHrp-IRwYcZaCuWWq-9" value="" style="html=1;points=[];perimeter=orthogonalPerimeter;" parent="9J9qHrp-IRwYcZaCuWWq-2" vertex="1">
          <mxGeometry x="45" y="69" width="10" height="71" as="geometry"/>
        </mxCell>
        <mxCell id="LNhbeMGU2I7_TpRNJxB6-43" value="" style="html=1;points=[];perimeter=orthogonalPerimeter;" parent="9J9qHrp-IRwYcZaCuWWq-2" vertex="1">
          <mxGeometry x="45" y="250" width="10" height="71" as="geometry"/>
        </mxCell>
        <mxCell id="LNhbeMGU2I7_TpRNJxB6-44" value="" style="html=1;points=[];perimeter=orthogonalPerimeter;" parent="9J9qHrp-IRwYcZaCuWWq-2" vertex="1">
          <mxGeometry x="185" y="261" width="10" height="60" as="geometry"/>
        </mxCell>
        <mxCell id="LNhbeMGU2I7_TpRNJxB6-45" value="" style="html=1;points=[];perimeter=orthogonalPerimeter;" parent="9J9qHrp-IRwYcZaCuWWq-2" vertex="1">
          <mxGeometry x="325" y="271" width="10" height="50" as="geometry"/>
        </mxCell>
        <mxCell id="LNhbeMGU2I7_TpRNJxB6-46" value="" style="html=1;points=[];perimeter=orthogonalPerimeter;" parent="9J9qHrp-IRwYcZaCuWWq-2" vertex="1">
          <mxGeometry x="465" y="281" width="10" height="40" as="geometry"/>
        </mxCell>
        <mxCell id="LNhbeMGU2I7_TpRNJxB6-47" value="POST [url]/accounts" style="html=1;verticalAlign=bottom;endArrow=block;" parent="9J9qHrp-IRwYcZaCuWWq-2" edge="1">
          <mxGeometry width="80" relative="1" as="geometry">
            <mxPoint x="-110" y="261" as="sourcePoint"/>
            <mxPoint x="49.50000000000023" y="261" as="targetPoint"/>
          </mxGeometry>
        </mxCell>
        <mxCell id="LNhbeMGU2I7_TpRNJxB6-48" value="" style="html=1;points=[];perimeter=orthogonalPerimeter;" parent="9J9qHrp-IRwYcZaCuWWq-2" vertex="1">
          <mxGeometry x="-115" y="250" width="10" height="71" as="geometry"/>
        </mxCell>
        <mxCell id="LNhbeMGU2I7_TpRNJxB6-49" value="" style="html=1;verticalAlign=bottom;endArrow=block;exitX=0.926;exitY=0.311;exitDx=0;exitDy=0;exitPerimeter=0;" parent="9J9qHrp-IRwYcZaCuWWq-2" source="LNhbeMGU2I7_TpRNJxB6-43" edge="1">
          <mxGeometry width="80" relative="1" as="geometry">
            <mxPoint x="80" y="272" as="sourcePoint"/>
            <mxPoint x="190" y="272" as="targetPoint"/>
          </mxGeometry>
        </mxCell>
        <mxCell id="LNhbeMGU2I7_TpRNJxB6-50" value="" style="html=1;verticalAlign=bottom;endArrow=block;" parent="9J9qHrp-IRwYcZaCuWWq-2" edge="1">
          <mxGeometry width="80" relative="1" as="geometry">
            <mxPoint x="195" y="280" as="sourcePoint"/>
            <mxPoint x="329.5" y="280" as="targetPoint"/>
          </mxGeometry>
        </mxCell>
        <mxCell id="LNhbeMGU2I7_TpRNJxB6-51" value="" style="html=1;verticalAlign=bottom;endArrow=block;exitX=0.929;exitY=0.354;exitDx=0;exitDy=0;exitPerimeter=0;" parent="9J9qHrp-IRwYcZaCuWWq-2" source="LNhbeMGU2I7_TpRNJxB6-45" edge="1">
          <mxGeometry width="80" relative="1" as="geometry">
            <mxPoint x="350" y="292" as="sourcePoint"/>
            <mxPoint x="469.5000000000002" y="288.70000000000005" as="targetPoint"/>
          </mxGeometry>
        </mxCell>
        <mxCell id="LNhbeMGU2I7_TpRNJxB6-52" value="" style="html=1;verticalAlign=bottom;endArrow=open;dashed=1;endSize=8;exitX=-0.114;exitY=0.726;exitDx=0;exitDy=0;exitPerimeter=0;" parent="9J9qHrp-IRwYcZaCuWWq-2" source="LNhbeMGU2I7_TpRNJxB6-46" edge="1">
          <mxGeometry relative="1" as="geometry">
            <mxPoint x="430" y="311" as="sourcePoint"/>
            <mxPoint x="-110.33333333333337" y="310.03999999999996" as="targetPoint"/>
          </mxGeometry>
        </mxCell>
        <mxCell id="LNhbeMGU2I7_TpRNJxB6-53" value="" style="html=1;points=[];perimeter=orthogonalPerimeter;" parent="9J9qHrp-IRwYcZaCuWWq-2" vertex="1">
          <mxGeometry x="45" y="340" width="10" height="71" as="geometry"/>
        </mxCell>
        <mxCell id="LNhbeMGU2I7_TpRNJxB6-54" value="" style="html=1;points=[];perimeter=orthogonalPerimeter;" parent="9J9qHrp-IRwYcZaCuWWq-2" vertex="1">
          <mxGeometry x="185" y="351" width="10" height="60" as="geometry"/>
        </mxCell>
        <mxCell id="LNhbeMGU2I7_TpRNJxB6-55" value="" style="html=1;points=[];perimeter=orthogonalPerimeter;" parent="9J9qHrp-IRwYcZaCuWWq-2" vertex="1">
          <mxGeometry x="325" y="361" width="10" height="50" as="geometry"/>
        </mxCell>
        <mxCell id="LNhbeMGU2I7_TpRNJxB6-56" value="" style="html=1;points=[];perimeter=orthogonalPerimeter;" parent="9J9qHrp-IRwYcZaCuWWq-2" vertex="1">
          <mxGeometry x="465" y="371" width="10" height="40" as="geometry"/>
        </mxCell>
        <mxCell id="LNhbeMGU2I7_TpRNJxB6-57" value="PUT [url]/accounts/:id" style="html=1;verticalAlign=bottom;endArrow=block;" parent="9J9qHrp-IRwYcZaCuWWq-2" edge="1">
          <mxGeometry width="80" relative="1" as="geometry">
            <mxPoint x="-110" y="351" as="sourcePoint"/>
            <mxPoint x="49.50000000000023" y="351" as="targetPoint"/>
          </mxGeometry>
        </mxCell>
        <mxCell id="LNhbeMGU2I7_TpRNJxB6-58" value="" style="html=1;points=[];perimeter=orthogonalPerimeter;" parent="9J9qHrp-IRwYcZaCuWWq-2" vertex="1">
          <mxGeometry x="-115" y="340" width="10" height="71" as="geometry"/>
        </mxCell>
        <mxCell id="LNhbeMGU2I7_TpRNJxB6-59" value="" style="html=1;verticalAlign=bottom;endArrow=block;exitX=0.926;exitY=0.311;exitDx=0;exitDy=0;exitPerimeter=0;" parent="9J9qHrp-IRwYcZaCuWWq-2" source="LNhbeMGU2I7_TpRNJxB6-53" edge="1">
          <mxGeometry width="80" relative="1" as="geometry">
            <mxPoint x="80" y="362" as="sourcePoint"/>
            <mxPoint x="190" y="362" as="targetPoint"/>
          </mxGeometry>
        </mxCell>
        <mxCell id="LNhbeMGU2I7_TpRNJxB6-60" value="" style="html=1;verticalAlign=bottom;endArrow=block;" parent="9J9qHrp-IRwYcZaCuWWq-2" edge="1">
          <mxGeometry width="80" relative="1" as="geometry">
            <mxPoint x="195" y="370" as="sourcePoint"/>
            <mxPoint x="329.5" y="370" as="targetPoint"/>
          </mxGeometry>
        </mxCell>
        <mxCell id="LNhbeMGU2I7_TpRNJxB6-61" value="" style="html=1;verticalAlign=bottom;endArrow=block;exitX=0.929;exitY=0.354;exitDx=0;exitDy=0;exitPerimeter=0;" parent="9J9qHrp-IRwYcZaCuWWq-2" source="LNhbeMGU2I7_TpRNJxB6-55" edge="1">
          <mxGeometry width="80" relative="1" as="geometry">
            <mxPoint x="350" y="382" as="sourcePoint"/>
            <mxPoint x="469.5000000000002" y="378.70000000000005" as="targetPoint"/>
          </mxGeometry>
        </mxCell>
        <mxCell id="LNhbeMGU2I7_TpRNJxB6-62" value="" style="html=1;verticalAlign=bottom;endArrow=open;dashed=1;endSize=8;exitX=-0.114;exitY=0.726;exitDx=0;exitDy=0;exitPerimeter=0;" parent="9J9qHrp-IRwYcZaCuWWq-2" source="LNhbeMGU2I7_TpRNJxB6-56" edge="1">
          <mxGeometry relative="1" as="geometry">
            <mxPoint x="430" y="401" as="sourcePoint"/>
            <mxPoint x="-110.33333333333337" y="400.03999999999996" as="targetPoint"/>
          </mxGeometry>
        </mxCell>
        <mxCell id="LNhbeMGU2I7_TpRNJxB6-63" value="" style="html=1;points=[];perimeter=orthogonalPerimeter;" parent="9J9qHrp-IRwYcZaCuWWq-2" vertex="1">
          <mxGeometry x="45" y="430" width="10" height="71" as="geometry"/>
        </mxCell>
        <mxCell id="LNhbeMGU2I7_TpRNJxB6-64" value="" style="html=1;points=[];perimeter=orthogonalPerimeter;" parent="9J9qHrp-IRwYcZaCuWWq-2" vertex="1">
          <mxGeometry x="185" y="441" width="10" height="60" as="geometry"/>
        </mxCell>
        <mxCell id="LNhbeMGU2I7_TpRNJxB6-65" value="" style="html=1;points=[];perimeter=orthogonalPerimeter;" parent="9J9qHrp-IRwYcZaCuWWq-2" vertex="1">
          <mxGeometry x="325" y="451" width="10" height="50" as="geometry"/>
        </mxCell>
        <mxCell id="LNhbeMGU2I7_TpRNJxB6-66" value="" style="html=1;points=[];perimeter=orthogonalPerimeter;" parent="9J9qHrp-IRwYcZaCuWWq-2" vertex="1">
          <mxGeometry x="465" y="461" width="10" height="40" as="geometry"/>
        </mxCell>
        <mxCell id="LNhbeMGU2I7_TpRNJxB6-67" value="DELETE [url]/accounts/:id" style="html=1;verticalAlign=bottom;endArrow=block;" parent="9J9qHrp-IRwYcZaCuWWq-2" edge="1">
          <mxGeometry width="80" relative="1" as="geometry">
            <mxPoint x="-110" y="441" as="sourcePoint"/>
            <mxPoint x="49.50000000000023" y="441" as="targetPoint"/>
          </mxGeometry>
        </mxCell>
        <mxCell id="LNhbeMGU2I7_TpRNJxB6-68" value="" style="html=1;points=[];perimeter=orthogonalPerimeter;" parent="9J9qHrp-IRwYcZaCuWWq-2" vertex="1">
          <mxGeometry x="-115" y="430" width="10" height="71" as="geometry"/>
        </mxCell>
        <mxCell id="LNhbeMGU2I7_TpRNJxB6-69" value="" style="html=1;verticalAlign=bottom;endArrow=block;exitX=0.926;exitY=0.311;exitDx=0;exitDy=0;exitPerimeter=0;" parent="9J9qHrp-IRwYcZaCuWWq-2" source="LNhbeMGU2I7_TpRNJxB6-63" edge="1">
          <mxGeometry width="80" relative="1" as="geometry">
            <mxPoint x="80" y="452" as="sourcePoint"/>
            <mxPoint x="190" y="452" as="targetPoint"/>
          </mxGeometry>
        </mxCell>
        <mxCell id="LNhbeMGU2I7_TpRNJxB6-70" value="" style="html=1;verticalAlign=bottom;endArrow=block;" parent="9J9qHrp-IRwYcZaCuWWq-2" edge="1">
          <mxGeometry width="80" relative="1" as="geometry">
            <mxPoint x="195" y="460" as="sourcePoint"/>
            <mxPoint x="329.5" y="460" as="targetPoint"/>
          </mxGeometry>
        </mxCell>
        <mxCell id="LNhbeMGU2I7_TpRNJxB6-71" value="" style="html=1;verticalAlign=bottom;endArrow=block;exitX=0.929;exitY=0.354;exitDx=0;exitDy=0;exitPerimeter=0;" parent="9J9qHrp-IRwYcZaCuWWq-2" source="LNhbeMGU2I7_TpRNJxB6-65" edge="1">
          <mxGeometry width="80" relative="1" as="geometry">
            <mxPoint x="350" y="472" as="sourcePoint"/>
            <mxPoint x="469.5000000000002" y="468.70000000000005" as="targetPoint"/>
          </mxGeometry>
        </mxCell>
        <mxCell id="LNhbeMGU2I7_TpRNJxB6-72" value="" style="html=1;verticalAlign=bottom;endArrow=open;dashed=1;endSize=8;exitX=-0.114;exitY=0.726;exitDx=0;exitDy=0;exitPerimeter=0;" parent="9J9qHrp-IRwYcZaCuWWq-2" source="LNhbeMGU2I7_TpRNJxB6-66" edge="1">
          <mxGeometry relative="1" as="geometry">
            <mxPoint x="430" y="491" as="sourcePoint"/>
            <mxPoint x="-110.33333333333337" y="490.03999999999996" as="targetPoint"/>
          </mxGeometry>
        </mxCell>
        <mxCell id="9J9qHrp-IRwYcZaCuWWq-16" value="" style="html=1;verticalAlign=bottom;endArrow=block;exitX=0.926;exitY=0.311;exitDx=0;exitDy=0;exitPerimeter=0;" parent="1" source="9J9qHrp-IRwYcZaCuWWq-9" edge="1">
          <mxGeometry width="80" relative="1" as="geometry">
            <mxPoint x="230" y="111" as="sourcePoint"/>
            <mxPoint x="340" y="111" as="targetPoint"/>
          </mxGeometry>
        </mxCell>
        <mxCell id="9J9qHrp-IRwYcZaCuWWq-17" value="" style="html=1;verticalAlign=bottom;endArrow=block;" parent="1" edge="1">
          <mxGeometry width="80" relative="1" as="geometry">
            <mxPoint x="345" y="119" as="sourcePoint"/>
            <mxPoint x="479.5" y="119" as="targetPoint"/>
          </mxGeometry>
        </mxCell>
        <mxCell id="9J9qHrp-IRwYcZaCuWWq-18" value="" style="html=1;verticalAlign=bottom;endArrow=block;exitX=0.929;exitY=0.354;exitDx=0;exitDy=0;exitPerimeter=0;" parent="1" source="9J9qHrp-IRwYcZaCuWWq-11" target="9J9qHrp-IRwYcZaCuWWq-6" edge="1">
          <mxGeometry width="80" relative="1" as="geometry">
            <mxPoint x="500" y="131" as="sourcePoint"/>
            <mxPoint x="610" y="131" as="targetPoint"/>
          </mxGeometry>
        </mxCell>
        <mxCell id="9J9qHrp-IRwYcZaCuWWq-19" value="" style="html=1;verticalAlign=bottom;endArrow=open;dashed=1;endSize=8;exitX=-0.114;exitY=0.726;exitDx=0;exitDy=0;exitPerimeter=0;" parent="1" source="9J9qHrp-IRwYcZaCuWWq-12" target="9J9qHrp-IRwYcZaCuWWq-7" edge="1">
          <mxGeometry relative="1" as="geometry">
            <mxPoint x="580" y="150" as="sourcePoint"/>
            <mxPoint x="530" y="150" as="targetPoint"/>
          </mxGeometry>
        </mxCell>
        <mxCell id="9J9qHrp-IRwYcZaCuWWq-21" value="Legend" style="rounded=0;whiteSpace=wrap;html=1;align=left;labelPosition=center;verticalLabelPosition=middle;verticalAlign=top;" parent="1" vertex="1">
          <mxGeometry x="680" y="214" width="190" height="106" as="geometry"/>
        </mxCell>
        <mxCell id="9J9qHrp-IRwYcZaCuWWq-22" value="" style="rounded=0;whiteSpace=wrap;html=1;align=left;fillColor=#e1d5e7;strokeColor=#9673a6;" parent="1" vertex="1">
          <mxGeometry x="710" y="250" width="40" height="20" as="geometry"/>
        </mxCell>
        <mxCell id="9J9qHrp-IRwYcZaCuWWq-23" value="" style="rounded=0;whiteSpace=wrap;html=1;align=left;fillColor=#fff2cc;strokeColor=#d6b656;" parent="1" vertex="1">
          <mxGeometry x="710" y="280" width="40" height="20" as="geometry"/>
        </mxCell>
        <mxCell id="9J9qHrp-IRwYcZaCuWWq-24" value="Library code" style="text;html=1;strokeColor=none;fillColor=none;align=left;verticalAlign=middle;whiteSpace=wrap;rounded=0;" parent="1" vertex="1">
          <mxGeometry x="760" y="250" width="100" height="20" as="geometry"/>
        </mxCell>
        <mxCell id="9J9qHrp-IRwYcZaCuWWq-25" value="Your custom code" style="text;html=1;strokeColor=none;fillColor=none;align=left;verticalAlign=middle;whiteSpace=wrap;rounded=0;" parent="1" vertex="1">
          <mxGeometry x="760" y="280" width="100" height="20" as="geometry"/>
        </mxCell>
      </root>
    </mxGraphModel>
  </diagram>
  <diagram id="sX8wg2pRR2eOrUY3g-dl" name="Historical CRUD">
    <mxGraphModel dx="1038" dy="544" grid="1" gridSize="10" guides="1" tooltips="1" connect="1" arrows="1" fold="1" page="1" pageScale="1" pageWidth="1100" pageHeight="850" math="0" shadow="0">
      <root>
        <mxCell id="g2xFffgjlq1YQ_jKITC8-0"/>
        <mxCell id="g2xFffgjlq1YQ_jKITC8-1" parent="g2xFffgjlq1YQ_jKITC8-0"/>
        <mxCell id="Ac3hgXTNXL-MHCO0Qw8q-4" value="&lt;font style=&quot;font-size: 10px&quot;&gt;CrudRepository&lt;/font&gt;" style="shape=umlLifeline;perimeter=lifelinePerimeter;whiteSpace=wrap;html=1;container=1;collapsible=0;recursiveResize=0;outlineConnect=0;fillColor=#e1d5e7;strokeColor=#9673a6;" parent="g2xFffgjlq1YQ_jKITC8-1" vertex="1">
          <mxGeometry x="860" y="20" width="100" height="540" as="geometry"/>
        </mxCell>
        <mxCell id="Ac3hgXTNXL-MHCO0Qw8q-5" value="" style="html=1;points=[];perimeter=orthogonalPerimeter;" parent="Ac3hgXTNXL-MHCO0Qw8q-4" vertex="1">
          <mxGeometry x="45" y="120" width="10" height="30" as="geometry"/>
        </mxCell>
        <mxCell id="Ac3hgXTNXL-MHCO0Qw8q-2" value="&lt;font style=&quot;font-size: 10px&quot;&gt;CrudServiceBase&lt;/font&gt;" style="shape=umlLifeline;perimeter=lifelinePerimeter;whiteSpace=wrap;html=1;container=1;collapsible=0;recursiveResize=0;outlineConnect=0;fillColor=#e1d5e7;strokeColor=#9673a6;" parent="g2xFffgjlq1YQ_jKITC8-1" vertex="1">
          <mxGeometry x="720" y="20" width="100" height="540" as="geometry"/>
        </mxCell>
        <mxCell id="Ac3hgXTNXL-MHCO0Qw8q-3" value="" style="html=1;points=[];perimeter=orthogonalPerimeter;" parent="Ac3hgXTNXL-MHCO0Qw8q-2" vertex="1">
          <mxGeometry x="45" y="110" width="10" height="40" as="geometry"/>
        </mxCell>
        <mxCell id="BbE4--l1yzjrQDiA1XWC-44" value="" style="html=1;points=[];perimeter=orthogonalPerimeter;" vertex="1" parent="Ac3hgXTNXL-MHCO0Qw8q-2">
          <mxGeometry x="45" y="360" width="10" height="30" as="geometry"/>
        </mxCell>
        <mxCell id="Ac3hgXTNXL-MHCO0Qw8q-0" value="&lt;font style=&quot;font-size: 10px&quot;&gt;Historical&lt;br&gt;CrudServiceBase&lt;/font&gt;" style="shape=umlLifeline;perimeter=lifelinePerimeter;whiteSpace=wrap;html=1;container=1;collapsible=0;recursiveResize=0;outlineConnect=0;fillColor=#e1d5e7;strokeColor=#9673a6;" parent="g2xFffgjlq1YQ_jKITC8-1" vertex="1">
          <mxGeometry x="580" y="20" width="100" height="540" as="geometry"/>
        </mxCell>
        <mxCell id="Ac3hgXTNXL-MHCO0Qw8q-62" value="&lt;font style=&quot;font-size: 10px;&quot;&gt;CrudControllerBase&lt;/font&gt;" style="shape=umlLifeline;perimeter=lifelinePerimeter;whiteSpace=wrap;html=1;container=1;collapsible=0;recursiveResize=0;outlineConnect=0;fillColor=#e1d5e7;strokeColor=#9673a6;fontSize=10;" parent="g2xFffgjlq1YQ_jKITC8-1" vertex="1">
          <mxGeometry x="434.14" y="20" width="100" height="540" as="geometry"/>
        </mxCell>
        <mxCell id="Ac3hgXTNXL-MHCO0Qw8q-63" value="" style="html=1;points=[];perimeter=orthogonalPerimeter;" parent="Ac3hgXTNXL-MHCO0Qw8q-62" vertex="1">
          <mxGeometry x="45" y="90" width="10" height="60" as="geometry"/>
        </mxCell>
        <mxCell id="Ac3hgXTNXL-MHCO0Qw8q-60" value="&lt;font style=&quot;font-size: 10px;&quot;&gt;Historical&lt;br style=&quot;font-size: 10px;&quot;&gt;CrudControllerBase&lt;/font&gt;" style="shape=umlLifeline;perimeter=lifelinePerimeter;whiteSpace=wrap;html=1;container=1;collapsible=0;recursiveResize=0;outlineConnect=0;fillColor=#e1d5e7;strokeColor=#9673a6;fontSize=10;size=40;" parent="g2xFffgjlq1YQ_jKITC8-1" vertex="1">
          <mxGeometry x="294.14" y="20" width="105.86" height="551" as="geometry"/>
        </mxCell>
        <mxCell id="Ac3hgXTNXL-MHCO0Qw8q-61" value="" style="html=1;points=[];perimeter=orthogonalPerimeter;" parent="Ac3hgXTNXL-MHCO0Qw8q-60" vertex="1">
          <mxGeometry x="47.93" y="80" width="10" height="70" as="geometry"/>
        </mxCell>
        <mxCell id="Ac3hgXTNXL-MHCO0Qw8q-19" value="&lt;font style=&quot;font-size: 10px&quot;&gt;AccountsController&lt;/font&gt;" style="shape=umlLifeline;perimeter=lifelinePerimeter;whiteSpace=wrap;html=1;container=1;collapsible=0;recursiveResize=0;outlineConnect=0;fillColor=#fff2cc;strokeColor=#d6b656;" parent="g2xFffgjlq1YQ_jKITC8-1" vertex="1">
          <mxGeometry x="150" y="20" width="100" height="540" as="geometry"/>
        </mxCell>
        <mxCell id="Ac3hgXTNXL-MHCO0Qw8q-20" value="" style="html=1;points=[];perimeter=orthogonalPerimeter;" parent="Ac3hgXTNXL-MHCO0Qw8q-19" vertex="1">
          <mxGeometry x="45" y="69" width="10" height="81" as="geometry"/>
        </mxCell>
        <mxCell id="Ac3hgXTNXL-MHCO0Qw8q-6" value="" style="shape=umlLifeline;participant=umlActor;perimeter=lifelinePerimeter;whiteSpace=wrap;html=1;container=1;collapsible=0;recursiveResize=0;verticalAlign=top;spacingTop=36;labelBackgroundColor=#ffffff;outlineConnect=0;" parent="g2xFffgjlq1YQ_jKITC8-1" vertex="1">
          <mxGeometry x="30" y="20" width="20" height="540" as="geometry"/>
        </mxCell>
        <mxCell id="Ac3hgXTNXL-MHCO0Qw8q-7" value="GET [url]/accounts" style="html=1;verticalAlign=bottom;endArrow=block;entryX=0.033;entryY=0.155;entryDx=0;entryDy=0;entryPerimeter=0;" parent="Ac3hgXTNXL-MHCO0Qw8q-6" target="Ac3hgXTNXL-MHCO0Qw8q-20" edge="1">
          <mxGeometry width="80" relative="1" as="geometry">
            <mxPoint x="10" y="80" as="sourcePoint"/>
            <mxPoint x="110" y="80" as="targetPoint"/>
          </mxGeometry>
        </mxCell>
        <mxCell id="Ac3hgXTNXL-MHCO0Qw8q-8" value="" style="html=1;points=[];perimeter=orthogonalPerimeter;" parent="Ac3hgXTNXL-MHCO0Qw8q-6" vertex="1">
          <mxGeometry x="5" y="69" width="10" height="81" as="geometry"/>
        </mxCell>
        <mxCell id="BbE4--l1yzjrQDiA1XWC-0" value="GET [url]/accounts/:id" style="html=1;verticalAlign=bottom;endArrow=block;entryX=0.033;entryY=0.155;entryDx=0;entryDy=0;entryPerimeter=0;" edge="1" parent="Ac3hgXTNXL-MHCO0Qw8q-6" target="BbE4--l1yzjrQDiA1XWC-7">
          <mxGeometry width="80" relative="1" as="geometry">
            <mxPoint x="10" y="181" as="sourcePoint"/>
            <mxPoint x="80" y="161" as="targetPoint"/>
          </mxGeometry>
        </mxCell>
        <mxCell id="BbE4--l1yzjrQDiA1XWC-1" value="" style="html=1;points=[];perimeter=orthogonalPerimeter;" vertex="1" parent="Ac3hgXTNXL-MHCO0Qw8q-6">
          <mxGeometry x="5" y="170" width="10" height="81" as="geometry"/>
        </mxCell>
        <mxCell id="BbE4--l1yzjrQDiA1XWC-2" value="" style="html=1;points=[];perimeter=orthogonalPerimeter;" vertex="1" parent="Ac3hgXTNXL-MHCO0Qw8q-6">
          <mxGeometry x="312.07" y="181" width="10" height="70" as="geometry"/>
        </mxCell>
        <mxCell id="BbE4--l1yzjrQDiA1XWC-3" value="" style="html=1;points=[];perimeter=orthogonalPerimeter;" vertex="1" parent="Ac3hgXTNXL-MHCO0Qw8q-6">
          <mxGeometry x="449.14" y="191" width="10" height="60" as="geometry"/>
        </mxCell>
        <mxCell id="BbE4--l1yzjrQDiA1XWC-5" value="" style="html=1;points=[];perimeter=orthogonalPerimeter;" vertex="1" parent="Ac3hgXTNXL-MHCO0Qw8q-6">
          <mxGeometry x="735" y="211" width="10" height="40" as="geometry"/>
        </mxCell>
        <mxCell id="BbE4--l1yzjrQDiA1XWC-6" value="" style="html=1;points=[];perimeter=orthogonalPerimeter;" vertex="1" parent="Ac3hgXTNXL-MHCO0Qw8q-6">
          <mxGeometry x="875" y="221" width="10" height="30" as="geometry"/>
        </mxCell>
        <mxCell id="BbE4--l1yzjrQDiA1XWC-7" value="" style="html=1;points=[];perimeter=orthogonalPerimeter;" vertex="1" parent="Ac3hgXTNXL-MHCO0Qw8q-6">
          <mxGeometry x="165" y="170" width="10" height="81" as="geometry"/>
        </mxCell>
        <mxCell id="BbE4--l1yzjrQDiA1XWC-8" value="" style="html=1;verticalAlign=bottom;endArrow=block;exitX=0.926;exitY=0.311;exitDx=0;exitDy=0;exitPerimeter=0;" edge="1" parent="Ac3hgXTNXL-MHCO0Qw8q-6" target="BbE4--l1yzjrQDiA1XWC-2">
          <mxGeometry width="80" relative="1" as="geometry">
            <mxPoint x="174.26" y="190.19100000000003" as="sourcePoint"/>
            <mxPoint x="309.1399999999999" y="190.19100000000003" as="targetPoint"/>
          </mxGeometry>
        </mxCell>
        <mxCell id="BbE4--l1yzjrQDiA1XWC-9" value="" style="html=1;verticalAlign=bottom;endArrow=block;" edge="1" parent="Ac3hgXTNXL-MHCO0Qw8q-6" source="BbE4--l1yzjrQDiA1XWC-3">
          <mxGeometry width="80" relative="1" as="geometry">
            <mxPoint x="604.1399999999999" y="220" as="sourcePoint"/>
            <mxPoint x="739.5" y="220" as="targetPoint"/>
          </mxGeometry>
        </mxCell>
        <mxCell id="BbE4--l1yzjrQDiA1XWC-10" value="" style="html=1;verticalAlign=bottom;endArrow=open;dashed=1;endSize=8;exitX=-0.09;exitY=0.808;exitDx=0;exitDy=0;exitPerimeter=0;" edge="1" parent="Ac3hgXTNXL-MHCO0Qw8q-6">
          <mxGeometry relative="1" as="geometry">
            <mxPoint x="874.0999999999999" y="241.24" as="sourcePoint"/>
            <mxPoint x="9.5" y="241.24" as="targetPoint"/>
          </mxGeometry>
        </mxCell>
        <mxCell id="BbE4--l1yzjrQDiA1XWC-11" value="" style="html=1;verticalAlign=bottom;endArrow=block;exitX=0.793;exitY=0.271;exitDx=0;exitDy=0;exitPerimeter=0;" edge="1" parent="Ac3hgXTNXL-MHCO0Qw8q-6" source="BbE4--l1yzjrQDiA1XWC-2" target="BbE4--l1yzjrQDiA1XWC-3">
          <mxGeometry width="80" relative="1" as="geometry">
            <mxPoint x="340" y="200" as="sourcePoint"/>
            <mxPoint x="410" y="200" as="targetPoint"/>
          </mxGeometry>
        </mxCell>
        <mxCell id="BbE4--l1yzjrQDiA1XWC-13" value="" style="html=1;verticalAlign=bottom;endArrow=block;exitX=1.071;exitY=0.681;exitDx=0;exitDy=0;exitPerimeter=0;" edge="1" parent="Ac3hgXTNXL-MHCO0Qw8q-6">
          <mxGeometry width="80" relative="1" as="geometry">
            <mxPoint x="745.71" y="231.24" as="sourcePoint"/>
            <mxPoint x="879.5" y="231.24" as="targetPoint"/>
          </mxGeometry>
        </mxCell>
        <mxCell id="BbE4--l1yzjrQDiA1XWC-28" value="POST [url]/accounts" style="html=1;verticalAlign=bottom;endArrow=block;entryX=0.09;entryY=0.056;entryDx=0;entryDy=0;entryPerimeter=0;" edge="1" parent="Ac3hgXTNXL-MHCO0Qw8q-6" target="BbE4--l1yzjrQDiA1XWC-35">
          <mxGeometry width="80" relative="1" as="geometry">
            <mxPoint x="10" y="281" as="sourcePoint"/>
            <mxPoint x="80" y="261" as="targetPoint"/>
          </mxGeometry>
        </mxCell>
        <mxCell id="BbE4--l1yzjrQDiA1XWC-29" value="" style="html=1;points=[];perimeter=orthogonalPerimeter;" vertex="1" parent="Ac3hgXTNXL-MHCO0Qw8q-6">
          <mxGeometry x="5" y="270" width="10" height="170" as="geometry"/>
        </mxCell>
        <mxCell id="BbE4--l1yzjrQDiA1XWC-30" value="" style="html=1;points=[];perimeter=orthogonalPerimeter;" vertex="1" parent="Ac3hgXTNXL-MHCO0Qw8q-6">
          <mxGeometry x="312.07" y="281" width="10" height="159" as="geometry"/>
        </mxCell>
        <mxCell id="BbE4--l1yzjrQDiA1XWC-32" value="" style="html=1;points=[];perimeter=orthogonalPerimeter;" vertex="1" parent="Ac3hgXTNXL-MHCO0Qw8q-6">
          <mxGeometry x="595" y="301" width="10" height="139" as="geometry"/>
        </mxCell>
        <mxCell id="BbE4--l1yzjrQDiA1XWC-33" value="" style="html=1;points=[];perimeter=orthogonalPerimeter;" vertex="1" parent="Ac3hgXTNXL-MHCO0Qw8q-6">
          <mxGeometry x="735" y="311" width="10" height="29" as="geometry"/>
        </mxCell>
        <mxCell id="BbE4--l1yzjrQDiA1XWC-34" value="" style="html=1;points=[];perimeter=orthogonalPerimeter;" vertex="1" parent="Ac3hgXTNXL-MHCO0Qw8q-6">
          <mxGeometry x="875" y="390" width="10" height="50" as="geometry"/>
        </mxCell>
        <mxCell id="BbE4--l1yzjrQDiA1XWC-35" value="" style="html=1;points=[];perimeter=orthogonalPerimeter;" vertex="1" parent="Ac3hgXTNXL-MHCO0Qw8q-6">
          <mxGeometry x="165" y="270" width="10" height="170" as="geometry"/>
        </mxCell>
        <mxCell id="BbE4--l1yzjrQDiA1XWC-36" value="" style="html=1;verticalAlign=bottom;endArrow=block;exitX=0.926;exitY=0.311;exitDx=0;exitDy=0;exitPerimeter=0;" edge="1" parent="Ac3hgXTNXL-MHCO0Qw8q-6" target="BbE4--l1yzjrQDiA1XWC-30">
          <mxGeometry width="80" relative="1" as="geometry">
            <mxPoint x="174.26" y="290.19100000000003" as="sourcePoint"/>
            <mxPoint x="309.1399999999999" y="290.19100000000003" as="targetPoint"/>
          </mxGeometry>
        </mxCell>
        <mxCell id="BbE4--l1yzjrQDiA1XWC-37" value="" style="html=1;verticalAlign=bottom;endArrow=block;" edge="1" parent="Ac3hgXTNXL-MHCO0Qw8q-6">
          <mxGeometry width="80" relative="1" as="geometry">
            <mxPoint x="604.1399999999999" y="320" as="sourcePoint"/>
            <mxPoint x="739.5" y="320" as="targetPoint"/>
          </mxGeometry>
        </mxCell>
        <mxCell id="BbE4--l1yzjrQDiA1XWC-43" value="Create entity" style="text;html=1;align=center;verticalAlign=middle;resizable=0;points=[];labelBackgroundColor=#ffffff;" vertex="1" connectable="0" parent="BbE4--l1yzjrQDiA1XWC-37">
          <mxGeometry x="0.6134" y="1" relative="1" as="geometry">
            <mxPoint x="-43.31" y="-8.5" as="offset"/>
          </mxGeometry>
        </mxCell>
        <mxCell id="BbE4--l1yzjrQDiA1XWC-38" value="" style="html=1;verticalAlign=bottom;endArrow=open;dashed=1;endSize=8;exitX=-0.2;exitY=0.831;exitDx=0;exitDy=0;exitPerimeter=0;" edge="1" parent="Ac3hgXTNXL-MHCO0Qw8q-6" source="BbE4--l1yzjrQDiA1XWC-34" target="Ac3hgXTNXL-MHCO0Qw8q-6">
          <mxGeometry relative="1" as="geometry">
            <mxPoint x="830" y="451" as="sourcePoint"/>
            <mxPoint x="9.5" y="451.24" as="targetPoint"/>
          </mxGeometry>
        </mxCell>
        <mxCell id="BbE4--l1yzjrQDiA1XWC-40" value="" style="html=1;verticalAlign=bottom;endArrow=block;" edge="1" parent="Ac3hgXTNXL-MHCO0Qw8q-6" source="BbE4--l1yzjrQDiA1XWC-30">
          <mxGeometry width="80" relative="1" as="geometry">
            <mxPoint x="459.1399999999999" y="309.9999999999999" as="sourcePoint"/>
            <mxPoint x="599.5" y="309.9999999999999" as="targetPoint"/>
          </mxGeometry>
        </mxCell>
        <mxCell id="Ac3hgXTNXL-MHCO0Qw8q-55" value="Legend" style="rounded=0;whiteSpace=wrap;html=1;align=left;labelPosition=center;verticalLabelPosition=middle;verticalAlign=top;" parent="g2xFffgjlq1YQ_jKITC8-1" vertex="1">
          <mxGeometry x="454.14" y="600" width="190" height="106" as="geometry"/>
        </mxCell>
        <mxCell id="Ac3hgXTNXL-MHCO0Qw8q-56" value="" style="rounded=0;whiteSpace=wrap;html=1;align=left;fillColor=#e1d5e7;strokeColor=#9673a6;" parent="g2xFffgjlq1YQ_jKITC8-1" vertex="1">
          <mxGeometry x="484.14" y="636" width="40" height="20" as="geometry"/>
        </mxCell>
        <mxCell id="Ac3hgXTNXL-MHCO0Qw8q-57" value="" style="rounded=0;whiteSpace=wrap;html=1;align=left;fillColor=#fff2cc;strokeColor=#d6b656;" parent="g2xFffgjlq1YQ_jKITC8-1" vertex="1">
          <mxGeometry x="484.14" y="666" width="40" height="20" as="geometry"/>
        </mxCell>
        <mxCell id="Ac3hgXTNXL-MHCO0Qw8q-58" value="Library code" style="text;html=1;strokeColor=none;fillColor=none;align=left;verticalAlign=middle;whiteSpace=wrap;rounded=0;" parent="g2xFffgjlq1YQ_jKITC8-1" vertex="1">
          <mxGeometry x="534.14" y="636" width="100" height="20" as="geometry"/>
        </mxCell>
        <mxCell id="Ac3hgXTNXL-MHCO0Qw8q-59" value="Your custom code" style="text;html=1;strokeColor=none;fillColor=none;align=left;verticalAlign=middle;whiteSpace=wrap;rounded=0;" parent="g2xFffgjlq1YQ_jKITC8-1" vertex="1">
          <mxGeometry x="534.14" y="666" width="100" height="20" as="geometry"/>
        </mxCell>
        <mxCell id="Ac3hgXTNXL-MHCO0Qw8q-51" value="" style="html=1;verticalAlign=bottom;endArrow=block;exitX=0.926;exitY=0.311;exitDx=0;exitDy=0;exitPerimeter=0;" parent="g2xFffgjlq1YQ_jKITC8-1" target="Ac3hgXTNXL-MHCO0Qw8q-61" edge="1">
          <mxGeometry width="80" relative="1" as="geometry">
            <mxPoint x="204.26" y="109.19100000000003" as="sourcePoint"/>
            <mxPoint x="339.1399999999999" y="109.19100000000003" as="targetPoint"/>
          </mxGeometry>
        </mxCell>
        <mxCell id="Ac3hgXTNXL-MHCO0Qw8q-52" value="" style="html=1;verticalAlign=bottom;endArrow=block;" parent="g2xFffgjlq1YQ_jKITC8-1" edge="1">
          <mxGeometry width="80" relative="1" as="geometry">
            <mxPoint x="488" y="139" as="sourcePoint"/>
            <mxPoint x="769.5" y="139" as="targetPoint"/>
          </mxGeometry>
        </mxCell>
        <mxCell id="Ac3hgXTNXL-MHCO0Qw8q-54" value="" style="html=1;verticalAlign=bottom;endArrow=open;dashed=1;endSize=8;exitX=-0.09;exitY=0.808;exitDx=0;exitDy=0;exitPerimeter=0;" parent="g2xFffgjlq1YQ_jKITC8-1" edge="1">
          <mxGeometry relative="1" as="geometry">
            <mxPoint x="904.0999999999999" y="160.24" as="sourcePoint"/>
            <mxPoint x="39.5" y="160.24" as="targetPoint"/>
          </mxGeometry>
        </mxCell>
        <mxCell id="Ac3hgXTNXL-MHCO0Qw8q-76" value="" style="html=1;verticalAlign=bottom;endArrow=block;exitX=0.793;exitY=0.271;exitDx=0;exitDy=0;exitPerimeter=0;" parent="g2xFffgjlq1YQ_jKITC8-1" source="Ac3hgXTNXL-MHCO0Qw8q-61" target="Ac3hgXTNXL-MHCO0Qw8q-63" edge="1">
          <mxGeometry width="80" relative="1" as="geometry">
            <mxPoint x="370" y="119" as="sourcePoint"/>
            <mxPoint x="440" y="119" as="targetPoint"/>
          </mxGeometry>
        </mxCell>
        <mxCell id="Ac3hgXTNXL-MHCO0Qw8q-79" value="" style="html=1;verticalAlign=bottom;endArrow=block;exitX=1.071;exitY=0.681;exitDx=0;exitDy=0;exitPerimeter=0;" parent="g2xFffgjlq1YQ_jKITC8-1" edge="1">
          <mxGeometry width="80" relative="1" as="geometry">
            <mxPoint x="775.71" y="150.24" as="sourcePoint"/>
            <mxPoint x="909.5" y="150.24" as="targetPoint"/>
          </mxGeometry>
        </mxCell>
        <mxCell id="BbE4--l1yzjrQDiA1XWC-45" value="" style="html=1;verticalAlign=bottom;endArrow=block;" edge="1" parent="g2xFffgjlq1YQ_jKITC8-1">
          <mxGeometry width="80" relative="1" as="geometry">
            <mxPoint x="634.9999999999999" y="389" as="sourcePoint"/>
            <mxPoint x="770.36" y="389" as="targetPoint"/>
          </mxGeometry>
        </mxCell>
        <mxCell id="BbE4--l1yzjrQDiA1XWC-46" value="Create historical event" style="text;html=1;align=center;verticalAlign=middle;resizable=0;points=[];labelBackgroundColor=#ffffff;" vertex="1" connectable="0" parent="BbE4--l1yzjrQDiA1XWC-45">
          <mxGeometry x="0.6134" y="1" relative="1" as="geometry">
            <mxPoint x="-43.31" y="-8.5" as="offset"/>
          </mxGeometry>
        </mxCell>
        <mxCell id="BbE4--l1yzjrQDiA1XWC-47" value="" style="html=1;verticalAlign=bottom;endArrow=open;dashed=1;endSize=8;entryX=1;entryY=0.746;entryDx=0;entryDy=0;entryPerimeter=0;" edge="1" parent="g2xFffgjlq1YQ_jKITC8-1">
          <mxGeometry relative="1" as="geometry">
            <mxPoint x="765" y="398.774" as="sourcePoint"/>
            <mxPoint x="635" y="398.774" as="targetPoint"/>
          </mxGeometry>
        </mxCell>
        <mxCell id="BbE4--l1yzjrQDiA1XWC-48" value="" style="html=1;verticalAlign=bottom;endArrow=open;dashed=1;endSize=8;entryX=1;entryY=0.746;entryDx=0;entryDy=0;entryPerimeter=0;" edge="1" parent="g2xFffgjlq1YQ_jKITC8-1">
          <mxGeometry relative="1" as="geometry">
            <mxPoint x="764.14" y="350.004" as="sourcePoint"/>
            <mxPoint x="634.14" y="350.004" as="targetPoint"/>
          </mxGeometry>
        </mxCell>
        <mxCell id="BbE4--l1yzjrQDiA1XWC-49" value="" style="html=1;verticalAlign=bottom;endArrow=block;" edge="1" parent="g2xFffgjlq1YQ_jKITC8-1">
          <mxGeometry width="80" relative="1" as="geometry">
            <mxPoint x="635" y="420" as="sourcePoint"/>
            <mxPoint x="910" y="420" as="targetPoint"/>
          </mxGeometry>
        </mxCell>
      </root>
    </mxGraphModel>
  </diagram>
</mxfile>
